<svg width="20" height="20" viewBox="0 0 20 20" fill="none" xmlns="http://www.w3.org/2000/svg">
<path fill-rule="evenodd" clip-rule="evenodd" d="M6.42857 2.14288C5.72096 2.14288 5.16776 2.5731 4.8241 3.08858C4.47711 3.60905 4.28571 4.28694 4.28571 5.00003C4.28571 5.71311 4.47711 6.391 4.8241 6.91147C5.16776 7.42695 5.72096 7.85717 6.42857 7.85717C7.13619 7.85717 7.68939 7.42695 8.03304 6.91147C8.38003 6.391 8.57143 5.71311 8.57143 5.00003C8.57143 4.28694 8.38003 3.60905 8.03304 3.08858C7.68939 2.5731 7.13619 2.14288 6.42857 2.14288ZM13.5714 2.14288C12.8638 2.14288 12.3106 2.5731 11.967 3.08858C11.62 3.60905 11.4286 4.28694 11.4286 5.00003C11.4286 5.71311 11.62 6.391 11.967 6.91147C12.3106 7.42695 12.8638 7.85717 13.5714 7.85717C14.279 7.85717 14.8323 7.42695 15.1759 6.91147C15.5229 6.391 15.7143 5.71311 15.7143 5.00003C15.7143 4.28694 15.5229 3.60905 15.1759 3.08858C14.8323 2.5731 14.279 2.14288 13.5714 2.14288ZM2.14286 8.57145C1.43524 8.57145 0.882039 9.00167 0.538383 9.51716C0.191399 10.0376 0 10.7155 0 11.4286C0 12.1417 0.191399 12.8196 0.538383 13.34C0.882039 13.8555 1.43524 14.2857 2.14286 14.2857C2.85047 14.2857 3.40367 13.8555 3.74733 13.34C4.09431 12.8196 4.28571 12.1417 4.28571 11.4286C4.28571 10.7155 4.09431 10.0376 3.74733 9.51716C3.40367 9.00167 2.85047 8.57145 2.14286 8.57145ZM10 8.57145C8.2845 8.57145 7.01606 9.49103 6.20377 10.6323C5.40271 11.7578 5 13.1528 5 14.2857C5 15.6059 5.79326 16.5236 6.7655 17.0749C7.72334 17.6182 8.92369 17.8572 10 17.8572C11.0763 17.8572 12.2767 17.6182 13.2345 17.0749C14.2067 16.5236 15 15.6059 15 14.2857C15 13.1528 14.5973 11.7578 13.7962 10.6323C12.9839 9.49103 11.7155 8.57145 10 8.57145ZM17.8571 8.57145C17.1496 8.57145 16.5963 9.00167 16.2527 9.51716C15.9057 10.0376 15.7143 10.7155 15.7143 11.4286C15.7143 12.1417 15.9057 12.8196 16.2527 13.34C16.5963 13.8555 17.1496 14.2857 17.8571 14.2857C18.5647 14.2857 19.118 13.8555 19.4616 13.34C19.8086 12.8196 20 12.1417 20 11.4286C20 10.7155 19.8086 10.0376 19.4616 9.51716C19.118 9.00167 18.5647 8.57145 17.8571 8.57145Z" fill="#9282FA"/>
</svg>
